<svg width="32" height="32" viewBox="0 0 32 32" fill="none" xmlns="http://www.w3.org/2000/svg">
<g id="target-04">
<path id="Icon" d="M16 16V14.6667C15.2636 14.6667 14.6667 15.2636 14.6667 16H16ZM16.1063 16H17.4396C17.4396 15.2636 16.8426 14.6667 16.1063 14.6667V16ZM16.1063 16.0961V17.4294C16.8426 17.4294 17.4396 16.8325 17.4396 16.0961H16.1063ZM16 16.0961H14.6667C14.6667 16.8325 15.2636 17.4294 16 17.4294V16.0961ZM26.6667 16C26.6667 21.891 21.891 26.6667 16 26.6667V29.3333C23.3638 29.3333 29.3333 23.3638 29.3333 16H26.6667ZM16 26.6667C10.109 26.6667 5.33333 21.891 5.33333 16H2.66667C2.66667 23.3638 8.6362 29.3333 16 29.3333V26.6667ZM5.33333 16C5.33333 10.109 10.109 5.33333 16 5.33333V2.66667C8.6362 2.66667 2.66667 8.6362 2.66667 16H5.33333ZM16 5.33333C21.891 5.33333 26.6667 10.109 26.6667 16H29.3333C29.3333 8.6362 23.3638 2.66667 16 2.66667V5.33333ZM20.6667 16C20.6667 18.5773 18.5773 20.6667 16 20.6667V23.3333C20.0501 23.3333 23.3333 20.0501 23.3333 16H20.6667ZM16 20.6667C13.4227 20.6667 11.3333 18.5773 11.3333 16H8.66667C8.66667 20.0501 11.9499 23.3333 16 23.3333V20.6667ZM11.3333 16C11.3333 13.4227 13.4227 11.3333 16 11.3333V8.66667C11.9499 8.66667 8.66667 11.9499 8.66667 16H11.3333ZM16 11.3333C18.5773 11.3333 20.6667 13.4227 20.6667 16H23.3333C23.3333 11.9499 20.0501 8.66667 16 8.66667V11.3333ZM16 17.3333H16.1063V14.6667H16V17.3333ZM14.7729 16V16.0961H17.4396V16H14.7729ZM16.1063 14.7628H16V17.4294H16.1063V14.7628ZM17.3333 16.0961V16H14.6667V16.0961H17.3333Z" fill="#444444"/>
</g>
</svg>
