<svg width="120" height="120" viewBox="0 0 120 120" fill="none" xmlns="http://www.w3.org/2000/svg">
<g id="file-check-02">
<path id="Icon" d="M100 62.5V34C100 25.5992 100 21.3988 98.3651 18.1901C96.927 15.3677 94.6323 13.073 91.8099 11.6349C88.6012 10 84.4008 10 76 10H44C35.5992 10 31.3988 10 28.1901 11.6349C25.3677 13.073 23.073 15.3677 21.6349 18.1901C20 21.3988 20 25.5992 20 34V86C20 94.4008 20 98.6012 21.6349 101.81C23.073 104.632 25.3677 106.927 28.1901 108.365C31.3988 110 35.5992 110 44 110H60M70 55H40M50 75H40M80 35H40M72.5 95L82.5 105L105 82.5" stroke="#444444" stroke-width="10" stroke-linecap="round" stroke-linejoin="round"/>
</g>
</svg>
