<svg width="32" height="32" viewBox="0 0 32 32" fill="none" xmlns="http://www.w3.org/2000/svg">
<g id="flag-03">
<path id="Icon" d="M5.33325 17.3333H26.116C26.7326 17.3333 27.0409 17.3333 27.217 17.204C27.3706 17.0913 27.4686 16.9182 27.4862 16.7285C27.5065 16.511 27.3479 16.2466 27.0306 15.7179L24.3292 11.2155C24.2095 11.0159 24.1496 10.9162 24.1262 10.8097C24.1055 10.7155 24.1055 10.6179 24.1262 10.5237C24.1496 10.4172 24.2095 10.3174 24.3292 10.1179L27.0306 5.61546C27.3479 5.0867 27.5065 4.82232 27.4862 4.60479C27.4686 4.41511 27.3706 4.24206 27.217 4.12931C27.0409 4 26.7326 4 26.116 4H5.33325L5.33325 28" stroke="#444444" stroke-width="2.66667" stroke-linecap="round" stroke-linejoin="round"/>
</g>
</svg>
