<svg width="120" height="120" viewBox="0 0 120 120" fill="none" xmlns="http://www.w3.org/2000/svg">
<g id="git-branch-01">
<path id="Icon" d="M15 15V66C15 74.4008 15 78.6012 16.6349 81.8099C18.073 84.6323 20.3677 86.927 23.1901 88.3651C26.3988 90 30.5992 90 39 90H75M75 90C75 98.2843 81.7157 105 90 105C98.2843 105 105 98.2843 105 90C105 81.7157 98.2843 75 90 75C81.7157 75 75 81.7157 75 90ZM15 40L75 40M75 40C75 48.2843 81.7157 55 90 55C98.2843 55 105 48.2843 105 40C105 31.7157 98.2843 25 90 25C81.7157 25 75 31.7157 75 40Z" stroke="#444444" stroke-width="10" stroke-linecap="round" stroke-linejoin="round"/>
</g>
</svg>
