<svg width="16" height="16" viewBox="0 0 16 16" fill="none" xmlns="http://www.w3.org/2000/svg">
<path id="Vector" d="M15 15.7C15.3866 15.7 15.7 15.3866 15.7 15C15.7 14.6134 15.3866 14.3 15 14.3V15.7ZM0.3 0V8.54839H1.7V0H0.3ZM0.3 8.54839C0.3 10.0721 0.611581 11.3228 1.22159 12.3298C1.83377 13.3404 2.71457 14.0528 3.76268 14.5496C5.81741 15.5235 8.59095 15.7 11.5 15.7V14.3C8.57572 14.3 6.09926 14.1078 4.36232 13.2845C3.51459 12.8827 2.86415 12.3393 2.41903 11.6045C1.97175 10.8661 1.7 9.88179 1.7 8.54839H0.3ZM11.5 15.7H15V14.3H11.5V15.7Z" fill="#DEDEDE"/>
</svg>
