<svg width="30" height="26" viewBox="0 0 30 26" fill="none" xmlns="http://www.w3.org/2000/svg">
<path id="Icon" d="M20.3332 2.62368C22.3088 3.60548 23.6665 5.64419 23.6665 8C23.6665 10.3558 22.3088 12.3945 20.3332 13.3763M22.9998 20.3552C25.0151 21.2671 26.8299 22.7533 28.3332 24.6667M1.6665 24.6667C4.26183 21.3634 7.78541 19.3333 11.6665 19.3333C15.5476 19.3333 19.0712 21.3634 21.6665 24.6667M17.6665 8C17.6665 11.3137 14.9802 14 11.6665 14C8.3528 14 5.6665 11.3137 5.6665 8C5.6665 4.68629 8.3528 2 11.6665 2C14.9802 2 17.6665 4.68629 17.6665 8Z" stroke="#444444" stroke-width="2.66667" stroke-linecap="round" stroke-linejoin="round"/>
</svg>
