<svg width="120" height="120" viewBox="0 0 120 120" fill="none" xmlns="http://www.w3.org/2000/svg">
<g id="users-02">
<path id="Icon" d="M80 17.3388C87.4086 21.0206 92.5 28.6657 92.5 37.5C92.5 46.3343 87.4086 53.9794 80 57.6612M90 83.8319C97.5573 87.2517 104.363 92.8249 110 100M10 100C19.7325 87.6129 32.9459 80 47.5 80C62.0541 80 75.2675 87.6129 85 100M70 37.5C70 49.9264 59.9264 60 47.5 60C35.0736 60 25 49.9264 25 37.5C25 25.0736 35.0736 15 47.5 15C59.9264 15 70 25.0736 70 37.5Z" stroke="#444444" stroke-width="10" stroke-linecap="round" stroke-linejoin="round"/>
</g>
</svg>
